# xmcd
#
# Track frame offsets: 
#        150
#        12787
#        27795
#        41912
#        56275
#        70802
#        82435
#        97827
#        110515
#        119677
#        135140
#        147105
#        159622
#        173732
#        187717
#        202655
#        217617
#        232082
#        246020
#        260287
#        278827
#        292077
#
# Disc length: 4083 seconds
#
# Revision: 2
# Processed by: cddbd v1.5.2PL0 Copyright (c) Steve Scherf et al.
# Submitted via: ExactAudioCopy v1.0b3
#
DISCID=2b0ff116
DTITLE=Sinatra, Frank - Classic Sinatra
DYEAR=2000
DGENRE=Easy Listening
TTITLE0=Saturday Night
TTITLE1=Embraceable You
TTITLE2=I Dream Of You (More Than You Dream I Do)
TTITLE3=Day By Day
TTITLE4=I Fall In Love Too Easily
TTITLE5=That Old Black Magic
TTITLE6=Mam'selle
TTITLE7=I Couldn't Sleep A Wink Last Night
TTITLE8=Come Out, Come Out, Wherever You Are
TTITLE9=There's No You
TTITLE10=Five Minutes More
TTITLE11=How Cute Can You Be?
TTITLE12=Guess I'll Hang My Tears Out Dry
TTITLE13=You Are Too Beautiful
TTITLE14=The Things We Did Last Summer
TTITLE15=Over The Rainbow
TTITLE16=Time After Time
TTITLE17=I Believe
TTITLE18=September Song
TTITLE19=Ol' Man River
TTITLE20=When Your Lover Has Gone
TTITLE21=Put Your Dreams Away (For Another Day)
EXTD=
EXTT0=
EXTT1=
EXTT2=
EXTT3=
EXTT4=
EXTT5=
EXTT6=
EXTT7=
EXTT8=
EXTT9=
EXTT10=
EXTT11=
EXTT12=
EXTT13=
EXTT14=
EXTT15=
EXTT16=
EXTT17=
EXTT18=
EXTT19=
EXTT20=
EXTT21=
PLAYORDER=
